<svg xmlns="http://www.w3.org/2000/svg" xmlns:bx="https://greentree.cf" style="enable-background:new 0 0 652 652" id="layer" x="0" y="0" version="1.1" viewBox="0 0 652 652"><defs><linearGradient id="gradient-1" x1="246.487" x2="246.487" y1="43.686" y2="107.686" gradientTransform="matrix(0.144074, 0.989567, -0.315078, 0.045874, 233.494156, -173.68145)" gradientUnits="userSpaceOnUse"><stop style="stop-color:transparent" offset="0"/><stop style="stop-color:rgba(0,0,0,.38)" offset="1"/></linearGradient><linearGradient id="gradient-2" x1="246.487" x2="246.487" y1="43.686" y2="107.686" gradientTransform="matrix(0.144074, 0.989567, -0.315078, 0.045874, -414.779709, -173.681923)" gradientUnits="userSpaceOnUse"><stop style="stop-color:transparent" offset="0"/><stop style="stop-color:rgba(0,0,0,.38)" offset="1"/></linearGradient><linearGradient id="gradient-5" x1="246.487" x2="246.487" y1="43.686" y2="107.686" gradientTransform="matrix(0.013747, 0.462034, -0.543285, 0.00119, 536.939941, -323.788818)" gradientUnits="userSpaceOnUse"><stop style="stop-color:transparent" offset="0"/><stop style="stop-color:rgba(0,0,0,.38)" offset="1"/></linearGradient><linearGradient id="gradient-6" x1="246.487" x2="246.487" y1="43.686" y2="107.686" gradientTransform="matrix(0.013747, 0.462034, -0.543285, 0.00119, -359.223267, 95.066528)" gradientUnits="userSpaceOnUse"><stop style="stop-color:transparent" offset="0"/><stop style="stop-color:rgba(0,0,0,.38)" offset="1"/></linearGradient><linearGradient id="gradient-7" x1="246.487" x2="246.487" y1="43.686" y2="107.686" gradientTransform="matrix(0.013747, 0.462034, -0.543287, 0.00119, 292.773651, -323.566833)" gradientUnits="userSpaceOnUse"><stop style="stop-color:transparent" offset="0"/><stop style="stop-color:rgba(0,0,0,.38)" offset="1"/></linearGradient><linearGradient id="gradient-8" x1="246.487" x2="246.487" y1="43.686" y2="107.686" gradientTransform="matrix(0.013747, 0.462034, -0.543285, 0.00119, -115.056702, 95.066589)" gradientUnits="userSpaceOnUse"><stop style="stop-color:transparent" offset="0"/><stop style="stop-color:rgba(0,0,0,.38)" offset="1"/></linearGradient><radialGradient id="gradient-9" cx="324.136" cy="-75.686" r="90.082" gradientUnits="userSpaceOnUse"><stop style="stop-color:#06881e" offset="0"/><stop style="stop-color:#06881e" offset="1"/></radialGradient><filter id="drop-shadow-filter-0" width="1000%" height="1000%" x="-500%" y="-500%" bx:preset="drop-shadow 1 0 10 14 0.73 rgba(0,0,0,0.4)"><feGaussianBlur in="SourceAlpha" stdDeviation="14"/><feOffset dx="0" dy="10"/><feComponentTransfer result="offsetblur"><feFuncA id="spread-ctrl" slope="1.46" type="linear"/></feComponentTransfer><feFlood x="10" y="10" flood-color="rgba(0,0,0,0.4)"/><feComposite in2="offsetblur" operator="in"/><feMerge><feMergeNode/><feMergeNode in="SourceGraphic"/></feMerge></filter><filter id="drop-shadow-filter-2" width="1000%" height="1000%" x="-500%" y="-500%" bx:preset="drop-shadow 1 0 10 16 0.58 rgba(0,0,0,0.3)"><feGaussianBlur in="SourceAlpha" stdDeviation="16"/><feOffset dx="0" dy="10"/><feComponentTransfer result="offsetblur"><feFuncA id="spread-ctrl" slope="1.16" type="linear"/></feComponentTransfer><feFlood x="10" y="10" flood-color="rgba(0,0,0,0.3)"/><feComposite in2="offsetblur" operator="in"/><feMerge><feMergeNode/><feMergeNode in="SourceGraphic"/></feMerge></filter><clipPath id="clip-0"><path style="filter:none" d="M 234.054 230.974 L 170.054 230.974 L 170.054 124.652 C 170.828 113.872 175.107 103.629 182.239 95.501 L 220.622 57.118 C 229.054 49.157 240 44.414 251.538 43.686 L 396.445 43.686 C 408.036 44.343 419.05 49.052 427.54 57.007 L 466.124 95.591 C 473.139 103.618 477.379 113.695 478.219 124.313 L 478.219 230.974 L 414.219 230.974 L 414.219 107.686 L 234.054 107.686 Z"><title>shadow handle</title></path></clipPath><filter id="drop-shadow-filter-4" width="1000%" height="1000%" x="-500%" y="-500%" bx:preset="drop-shadow 1 0 7 7 0.36 rgba(255,255,255,0.3)"><feGaussianBlur in="SourceAlpha" stdDeviation="7"/><feOffset dx="0" dy="7"/><feComponentTransfer result="offsetblur"><feFuncA id="spread-ctrl" slope=".72" type="linear"/></feComponentTransfer><feFlood x="10" y="10" flood-color="rgba(255,255,255,0.3)"/><feComposite in2="offsetblur" operator="in"/><feMerge><feMergeNode/><feMergeNode in="SourceGraphic"/></feMerge></filter><filter id="filter-2" width="1000%" height="1000%" x="-500%" y="-500%" bx:preset="drop-shadow 1 0 -10 5 0.5 rgba(0,0,0,0.3)"><feGaussianBlur in="SourceAlpha" stdDeviation="5"/><feOffset dx="0" dy="-10"/><feComponentTransfer result="offsetblur"><feFuncA id="feFuncA-2" slope="1" type="linear"/></feComponentTransfer><feFlood x="10" y="10" flood-color="rgba(0,0,0,0.3)"/><feComposite in2="offsetblur" operator="in"/><feMerge><feMergeNode/><feMergeNode in="SourceGraphic"/></feMerge></filter><clipPath id="clip-1"><rect width="292.43" height="292.43" x="179.785" y="270.48" rx="62.1" ry="62.1"><title>black</title></rect></clipPath><filter id="filter-1" width="1000%" height="1000%" x="-500%" y="-500%" bx:preset="drop-shadow 1 0 10 15 0.48 rgba(0,0,0,0.56)"><feGaussianBlur in="SourceAlpha" stdDeviation="15"/><feOffset dx="0" dy="10"/><feComponentTransfer result="offsetblur"><feFuncA id="feFuncA-1" slope=".96" type="linear"/></feComponentTransfer><feFlood x="10" y="10" flood-color="rgba(0,0,0,0.56)"/><feComposite in2="offsetblur" operator="in"/><feMerge><feMergeNode/><feMergeNode in="SourceGraphic"/></feMerge></filter><filter id="filter-3" width="1000%" height="1000%" x="-500%" y="-500%" bx:preset="drop-shadow 1 0 10 15 0.48 rgba(0,0,0,0.56)"><feGaussianBlur in="SourceAlpha" stdDeviation="15"/><feOffset dx="0" dy="10"/><feComponentTransfer result="offsetblur"><feFuncA id="feFuncA-3" slope=".96" type="linear"/></feComponentTransfer><feFlood x="10" y="10" flood-color="rgba(0,0,0,0.56)"/><feComposite in2="offsetblur" operator="in"/><feMerge><feMergeNode/><feMergeNode in="SourceGraphic"/></feMerge></filter><linearGradient id="gradient-10" x1="325.999" x2="325.999" y1="205.284" y2="617.816" gradientTransform="matrix(1, 0, 0, 1, 0, 0)" gradientUnits="userSpaceOnUse"><stop style="stop-color:#353bff" offset="0"/><stop style="stop-color:#0800a6" offset="1"/></linearGradient></defs><style type="text/css"/><path style="fill:#06b025;filter:url(#drop-shadow-filter-2)" d="M 244.51 233.83 L 186.614 233.83 L 186.614 137.649 C 187.315 127.898 191.186 118.632 197.637 111.28 L 232.359 76.558 C 239.987 69.356 249.889 65.065 260.326 64.407 L 391.411 64.407 C 401.896 65.001 411.86 69.261 419.54 76.457 L 454.444 111.361 C 460.79 118.622 464.625 127.738 465.385 137.343 L 465.385 233.83 L 407.489 233.83 L 407.489 122.302 L 244.51 122.302 Z"><title>shadow handle</title></path><path d="M 81.843 205.284 H 570.155 A 46.477 46.477 0 0 1 616.632 251.761 V 501.721 A 116.095 116.095 0 0 1 500.537 617.816 H 151.461 A 116.095 116.095 0 0 1 35.366 501.721 V 251.761 A 46.477 46.477 0 0 1 81.843 205.284 Z" bx:shape="rect 35.366 205.284 581.266 412.532 46.477 46.477 116.095 116.095 1@f5441ab0" style="stroke-width:30px;filter:url(#filter-3);fill:url(#gradient-10)"><title>basket</title></path><path d="M 81.794 233.403 H 570.236 A 17.131 17.131 0 0 1 587.367 250.534 V 495.86 A 92.154 92.154 0 0 1 495.213 588.014 H 156.817 A 92.154 92.154 0 0 1 64.663 495.86 V 250.534 A 17.131 17.131 0 0 1 81.794 233.403 Z" bx:shape="rect 64.663 233.403 522.704 354.611 17.131 17.131 92.154 92.154 1@9bc2279a" style="fill:#fff;stroke-width:30px;filter:url(#filter-1)"><title>white cover</title></path><g style="filter:none;clip-path:url(#clip-0)" transform="matrix(0.904613, 0, 0, 0.904613, 32.781208, 24.887253)"><title>handle</title><rect style="fill:#06b025" width="64" height="123.288" x="170.054" y="107.686"/><rect style="fill:#06b025" width="64" height="123.288" x="414.219" y="107.686"/><rect style="fill:url(#gradient-9)" width="180.165" height="64" x="234.054" y="-107.686" transform="matrix(1, 0, 0, -1, 0, 0)"/><path style="fill:#06b025" d="M 170.054 107.686 L 234.054 43.686 L 234.054 107.686 L 170.054 107.686 Z"/><path style="fill:#06b025" d="M 414.219 43.686 L 478.219 107.686 L 414.219 107.686 L 414.219 43.686 Z"/><rect style="fill:url(#gradient-1)" width="21.139" height="64" x="234.054" y="43.686"/><rect style="fill:url(#gradient-2)" width="21.139" height="64" x="-414.219" y="43.686" transform="matrix(-1, 0, 0, 1, 0, 0)"/></g><g style="filter:url(#drop-shadow-filter-0)" transform="matrix(0.78414, 0, 0, 0.78414, 73.326454, 101.673027)"><title>logo</title><rect width="355.3" height="355.3" x="144.58" y="218.624" rx="62.1" ry="62.1"><title>black</title></rect><rect style="fill:#f70d4e" width="89.958" height="89.958" x="167.679" y="241.723" rx="28.994" ry="28.994"/><rect style="fill:#f70d4e" width="89.958" height="89.958" x="277.266" y="241.723" rx="28.994" ry="28.994"/><rect style="fill:#f70d4e" width="89.958" height="89.958" x="386.825" y="241.723" rx="28.994" ry="28.994"/><rect style="fill:#f70d4e" width="89.958" height="89.958" x="167.679" y="350.4" rx="28.994" ry="28.994"/><rect style="fill:#f70d4e" width="89.958" height="89.958" x="277.252" y="351.296" rx="28.994" ry="28.994"/><rect style="fill:#f70d4e" width="89.958" height="89.958" x="386.825" y="350.4" rx="28.994" ry="28.994"/><rect style="fill:#f70d4e" width="89.958" height="89.958" x="167.679" y="460.869" rx="28.994" ry="28.994"/><rect style="fill:#f70d4e" width="89.958" height="89.958" x="277.266" y="460.869" rx="28.994" ry="28.994"/><rect style="fill:#f70d4e" width="89.958" height="89.958" x="386.825" y="460.869" rx="28.994" ry="28.994"/></g><g transform="matrix(0.904613, 0, 0, 0.904613, 31.095921, 31.09601)" style="visibility:hidden"><title>crescents</title><path d="M 272.93 299.782 A 20.596 20.596 0 0 1 272.93 340.218 A 49.59 49.59 0 0 0 272.93 299.782 Z" transform="matrix(-0.923872, -0.382702, 0.382702, -0.923872, 309.233303, 504.10176)" bx:shape="crescent 269 320 20.596 158 0.7 1@08b2f45c" style="fill:#fff"/><path d="M 272.93 299.782 A 20.596 20.596 0 0 1 272.93 340.218 A 49.59 49.59 0 0 0 272.93 299.782 Z" transform="matrix(-0.382665, -0.923887, 0.923887, -0.382665, 47.995705, 419.089032)" bx:shape="crescent 269 320 20.596 158 0.7 1@08b2f45c" style="fill:#fff"/><path d="M 272.93 299.782 A 20.596 20.596 0 0 1 272.93 340.218 A 49.59 49.59 0 0 0 272.93 299.782 Z" transform="matrix(0.923872, -0.382702, -0.382702, -0.923872, 342.792393, 504.120131)" bx:shape="crescent 269 320 20.596 158 0.7 1@08b2f45c" style="fill:#fff"/><path d="M 272.93 299.782 A 20.596 20.596 0 0 1 272.93 340.218 A 49.59 49.59 0 0 0 272.93 299.782 Z" transform="matrix(0.382665, -0.923887, -0.923887, -0.382665, 604.029929, 419.1078)" bx:shape="crescent 269 320 20.596 158 0.7 1@08b2f45c" style="fill:#fff"/></g><g transform="matrix(0.904613, 0, 0, 0.956454, 31.095921, 19.466761)"><title>shadows around handle</title><rect style="fill:url(#gradient-5)" width="36" height="29.572" x="480.082" y="-224.325" transform="matrix(1, 0, 0, -1, 0, 0)"/><rect style="fill:url(#gradient-6)" width="36" height="29.572" x="-416.082" y="194.531" transform="matrix(-1, 0, 0, 1, 0, 0)"/><rect style="fill:url(#gradient-7)" width="36" height="29.572" x="235.917" y="-224.103" transform="matrix(1, 0, 0, -1, 0, 0)"/><rect style="fill:url(#gradient-8)" width="36" height="29.572" x="-171.917" y="194.531" transform="matrix(-1, 0, 0, 1, 0, 0)"/></g><g transform="matrix(0.952725, 0, 0, 0.952725, 15.411641, 15.411695)" style="clip-path:url(#clip-1)"><title>accents</title><path style="filter:url(#drop-shadow-filter-4);isolation:isolate" d="M 230.896 270.48 L 421.103 270.48 C 449.331 270.48 472.215 293.363 472.215 321.591 L 472.215 511.798 C 472.215 540.026 449.331 562.91 421.103 562.91 L 230.896 562.91 C 202.668 562.91 179.785 540.026 179.785 511.798 L 179.785 321.591 C 179.785 293.363 202.668 270.48 230.896 270.48 Z M 198.797 313.355 L 198.797 339.668 C 198.797 352.848 209.481 363.532 222.66 363.532 L 248.973 363.532 C 262.152 363.532 272.836 352.848 272.836 339.668 L 272.836 313.355 C 272.836 300.176 262.152 289.492 248.973 289.492 L 222.66 289.492 C 209.481 289.492 198.797 300.176 198.797 313.355 Z M 288.992 313.355 L 288.992 339.668 C 288.992 352.848 299.676 363.532 312.856 363.532 L 339.169 363.532 C 352.348 363.532 363.032 352.848 363.032 339.668 L 363.032 313.355 C 363.032 300.176 352.348 289.492 339.169 289.492 L 312.856 289.492 C 299.676 289.492 288.992 300.176 288.992 313.355 Z M 379.165 313.355 L 379.165 339.668 C 379.165 352.848 389.849 363.532 403.028 363.532 L 429.341 363.532 C 442.521 363.532 453.205 352.848 453.205 339.668 L 453.205 313.355 C 453.205 300.176 442.521 289.492 429.341 289.492 L 403.028 289.492 C 389.849 289.492 379.165 300.176 379.165 313.355 Z M 198.797 402.802 L 198.797 429.115 C 198.797 442.294 209.481 452.978 222.66 452.978 L 248.973 452.978 C 262.152 452.978 272.836 442.294 272.836 429.115 L 272.836 402.802 C 272.836 389.622 262.152 378.938 248.973 378.938 L 222.66 378.938 C 209.481 378.938 198.797 389.622 198.797 402.802 Z M 288.981 403.539 L 288.981 429.852 C 288.981 443.032 299.665 453.716 312.844 453.716 L 339.157 453.716 C 352.336 453.716 363.021 443.032 363.021 429.852 L 363.021 403.539 C 363.021 390.36 352.336 379.676 339.157 379.676 L 312.844 379.676 C 299.665 379.676 288.981 390.36 288.981 403.539 Z M 379.165 402.802 L 379.165 429.115 C 379.165 442.294 389.849 452.978 403.028 452.978 L 429.341 452.978 C 442.521 452.978 453.205 442.294 453.205 429.115 L 453.205 402.802 C 453.205 389.622 442.521 378.938 429.341 378.938 L 403.028 378.938 C 389.849 378.938 379.165 389.622 379.165 402.802 Z M 198.797 493.723 L 198.797 520.036 C 198.797 533.216 209.481 543.9 222.66 543.9 L 248.973 543.9 C 262.152 543.9 272.836 533.216 272.836 520.036 L 272.836 493.723 C 272.836 480.544 262.152 469.86 248.973 469.86 L 222.66 469.86 C 209.481 469.86 198.797 480.544 198.797 493.723 Z M 288.992 493.723 L 288.992 520.036 C 288.992 533.216 299.676 543.9 312.856 543.9 L 339.169 543.9 C 352.348 543.9 363.032 533.216 363.032 520.036 L 363.032 493.723 C 363.032 480.544 352.348 469.86 339.169 469.86 L 312.856 469.86 C 299.676 469.86 288.992 480.544 288.992 493.723 Z M 379.165 493.723 L 379.165 520.036 C 379.165 533.216 389.849 543.9 403.028 543.9 L 429.341 543.9 C 442.521 543.9 453.205 533.216 453.205 520.036 L 453.205 493.723 C 453.205 480.544 442.521 469.86 429.341 469.86 L 403.028 469.86 C 389.849 469.86 379.165 480.544 379.165 493.723 Z"><title>white accents</title></path><path style="filter:url(#filter-2)" d="M 230.896 270.48 L 421.103 270.48 C 449.331 270.48 472.215 293.363 472.215 321.591 L 472.215 511.798 C 472.215 540.026 449.331 562.91 421.103 562.91 L 230.896 562.91 C 202.668 562.91 179.785 540.026 179.785 511.798 L 179.785 321.591 C 179.785 293.363 202.668 270.48 230.896 270.48 Z M 198.797 313.355 L 198.797 339.668 C 198.797 352.848 209.481 363.532 222.66 363.532 L 248.973 363.532 C 262.152 363.532 272.836 352.848 272.836 339.668 L 272.836 313.355 C 272.836 300.176 262.152 289.492 248.973 289.492 L 222.66 289.492 C 209.481 289.492 198.797 300.176 198.797 313.355 Z M 288.992 313.355 L 288.992 339.668 C 288.992 352.848 299.676 363.532 312.856 363.532 L 339.169 363.532 C 352.348 363.532 363.032 352.848 363.032 339.668 L 363.032 313.355 C 363.032 300.176 352.348 289.492 339.169 289.492 L 312.856 289.492 C 299.676 289.492 288.992 300.176 288.992 313.355 Z M 379.165 313.355 L 379.165 339.668 C 379.165 352.848 389.849 363.532 403.028 363.532 L 429.341 363.532 C 442.521 363.532 453.205 352.848 453.205 339.668 L 453.205 313.355 C 453.205 300.176 442.521 289.492 429.341 289.492 L 403.028 289.492 C 389.849 289.492 379.165 300.176 379.165 313.355 Z M 198.797 402.802 L 198.797 429.115 C 198.797 442.294 209.481 452.978 222.66 452.978 L 248.973 452.978 C 262.152 452.978 272.836 442.294 272.836 429.115 L 272.836 402.802 C 272.836 389.622 262.152 378.938 248.973 378.938 L 222.66 378.938 C 209.481 378.938 198.797 389.622 198.797 402.802 Z M 288.981 403.539 L 288.981 429.852 C 288.981 443.032 299.665 453.716 312.844 453.716 L 339.157 453.716 C 352.336 453.716 363.021 443.032 363.021 429.852 L 363.021 403.539 C 363.021 390.36 352.336 379.676 339.157 379.676 L 312.844 379.676 C 299.665 379.676 288.981 390.36 288.981 403.539 Z M 379.165 402.802 L 379.165 429.115 C 379.165 442.294 389.849 452.978 403.028 452.978 L 429.341 452.978 C 442.521 452.978 453.205 442.294 453.205 429.115 L 453.205 402.802 C 453.205 389.622 442.521 378.938 429.341 378.938 L 403.028 378.938 C 389.849 378.938 379.165 389.622 379.165 402.802 Z M 198.797 493.723 L 198.797 520.036 C 198.797 533.216 209.481 543.9 222.66 543.9 L 248.973 543.9 C 262.152 543.9 272.836 533.216 272.836 520.036 L 272.836 493.723 C 272.836 480.544 262.152 469.86 248.973 469.86 L 222.66 469.86 C 209.481 469.86 198.797 480.544 198.797 493.723 Z M 288.992 493.723 L 288.992 520.036 C 288.992 533.216 299.676 543.9 312.856 543.9 L 339.169 543.9 C 352.348 543.9 363.032 533.216 363.032 520.036 L 363.032 493.723 C 363.032 480.544 352.348 469.86 339.169 469.86 L 312.856 469.86 C 299.676 469.86 288.992 480.544 288.992 493.723 Z M 379.165 493.723 L 379.165 520.036 C 379.165 533.216 389.849 543.9 403.028 543.9 L 429.341 543.9 C 442.521 543.9 453.205 533.216 453.205 520.036 L 453.205 493.723 C 453.205 480.544 442.521 469.86 429.341 469.86 L 403.028 469.86 C 389.849 469.86 379.165 480.544 379.165 493.723 Z"><title>black accents</title></path></g></svg>